<svg xmlns="http://www.w3.org/2000/svg" width="302" height="395" fill="none"><path fill="#502D41" d="M267.685 112.139C234.07 68.18 178.719 78.647 155.246 89.375c-51.357-26.82-90.263 7.195-120.87 47.359-30.606 40.164-25.16 107.148-16.73 147.705 8.43 40.557 73.923 147.835 193.884 96.943 119.962-50.892 98.174-214.296 56.155-269.243Z"/><path fill="#6C235A" d="M266.066 109.573c-32.224-40.47-85.285-30.834-107.787-20.957-49.231-24.692-86.528 6.624-115.868 43.6-29.34 36.977-24.118 98.645-16.037 135.983 8.08 37.337 70.863 136.102 185.861 89.249 114.997-46.853 94.111-197.288 53.831-247.875Z"/><path fill="#9AC43C" d="M32.693 78.107c27.268-23.478 68.077-27.429 85.073-26.47.34 11.053-5.201 39.862-30.091 66.684-24.89 26.822-68.139 25.665-86.652 21.733-.805-10.866 4.403-38.468 31.67-61.947Z"/><path fill="#6AA241" d="M100.212 61.483c19.541-9.51 23.993-19.937 23.776-23.962l3.158 6.966c-.619 4.922-11.238 18.036-48.759 31.112-37.521 13.077-62.133 41.794-69.748 54.517 25.819-43.372 67.148-56.746 91.573-68.633Z"/><path fill="#6AA241" d="M114.329 1.3c26.377 25.336 25.417 68.139 21.64 86.373h-1.579c2.229-41.459-20.432-66.87-32.041-74.392 10.55-1.263 12.383-8.513 11.98-11.98Z"/><path fill="#9AC43C" d="M113.68 0c-5.604.402-15.696 3.622-11.238 13.281 4.798-.62 13.764-4.142 11.238-13.281Z"/></svg>