<svg width="409" height="110" viewBox="0 0 409 110" fill="none" xmlns="http://www.w3.org/2000/svg">
<path d="M70.136 29.4856C61.2972 17.9273 46.7433 20.6792 40.5712 23.5C27.0676 16.4481 16.8376 25.392 8.78998 35.9527C0.742369 46.5135 2.17457 64.1261 4.39108 74.7901C6.60758 85.454 23.8281 113.662 55.3707 100.28C86.9132 86.8988 81.1844 43.9335 70.136 29.4856Z" fill="#502D41"/>
<path d="M69.7102 28.811C61.2372 18.17 47.2856 20.7035 41.3688 23.3004C28.424 16.8082 18.6173 25.0423 10.9027 34.7648C3.18807 44.4874 4.56101 60.7023 6.6858 70.5198C8.81058 80.3374 25.3185 106.307 55.5559 93.987C85.7932 81.6675 80.3015 42.1122 69.7102 28.811Z" fill="#6C235A"/>
<path d="M8.34741 20.5373C15.5172 14.3639 26.2474 13.3253 30.7163 13.5776C30.8058 16.4836 29.3488 24.0587 22.8042 31.1113C16.2595 38.1638 4.88789 37.8594 0.02013 36.8256C-0.191512 33.9685 1.17765 26.7108 8.34741 20.5373Z" fill="#9AC43C"/>
<path d="M26.1008 16.1661C31.2388 13.6655 32.4093 10.9239 32.3523 9.86572L33.1826 11.6972C33.0198 12.9915 30.2278 16.4396 20.362 19.878C10.4963 23.3164 4.02492 30.8671 2.02246 34.2126C8.81127 22.8084 19.6783 19.2919 26.1008 16.1661Z" fill="#6AA241"/>
<path d="M29.8128 0.341919C36.7481 7.00374 36.4958 18.2582 35.5027 23.0527H35.0876C35.6736 12.1515 29.7151 5.47016 26.6626 3.49212C29.4367 3.16001 29.9186 1.25361 29.8128 0.341919Z" fill="#6AA241"/>
<path d="M29.6418 0C28.1685 0.105821 25.5148 0.952387 26.687 3.49209C27.9487 3.32928 30.3061 2.40295 29.6418 0Z" fill="#9AC43C"/>
<path d="M138.73 88.9257L130.95 81.574C126.858 84.429 121.909 85.8565 116.104 85.8565C111.25 85.8565 106.968 84.8335 103.256 82.7874C99.5446 80.7413 96.642 77.8625 94.5483 74.1509C92.4546 70.4394 91.4078 66.1093 91.4078 61.1606C91.4078 56.2119 92.4546 51.8818 94.5483 48.1703C96.642 44.4587 99.5446 41.5799 103.256 39.5338C106.968 37.4877 111.25 36.4647 116.104 36.4647C121.005 36.4647 125.311 37.4877 129.023 39.5338C132.734 41.5799 135.637 44.4587 137.73 48.1703C139.872 51.8818 140.942 56.2119 140.942 61.1606C140.942 63.9204 140.586 66.49 139.872 68.8691C139.206 71.2483 138.254 73.4134 137.017 75.3643L144.654 82.5732L138.73 88.9257ZM116.104 76.5777C118.816 76.5777 121.195 75.8401 123.241 74.3651L113.035 64.658L118.959 58.4483L128.166 67.0848C128.452 66.1807 128.642 65.2528 128.737 64.3011C128.88 63.3019 128.951 62.255 128.951 61.1606C128.951 57.7822 128.357 54.9509 127.167 52.6669C126.025 50.3829 124.478 48.6699 122.528 47.5279C120.577 46.3383 118.435 45.7435 116.104 45.7435C113.82 45.7435 111.702 46.3383 109.751 47.5279C107.8 48.6699 106.23 50.3829 105.041 52.6669C103.899 54.9509 103.328 57.7822 103.328 61.1606C103.328 64.539 103.899 67.3703 105.041 69.6543C106.23 71.9383 107.8 73.6751 109.751 74.8647C111.702 76.0067 113.82 76.5777 116.104 76.5777ZM160.517 85.8565C157.377 85.8565 154.902 85.2855 153.094 84.1435C151.333 82.9539 150.072 81.2409 149.311 79.0045C148.597 76.768 148.241 74.0558 148.241 70.8677V49.5978H159.09V69.3688C159.09 72.6045 159.565 74.7695 160.517 75.8639C161.516 76.9108 162.896 77.4342 164.657 77.4342C166.798 77.4342 168.345 76.7204 169.296 75.2929C170.296 73.8654 170.795 71.51 170.795 68.2268V49.5978H181.716V85H172.294L170.795 80.0037C169.748 81.7643 168.44 83.1918 166.87 84.2862C165.347 85.3331 163.229 85.8565 160.517 85.8565ZM206.505 85.8565C202.699 85.8565 199.32 85.119 196.37 83.6439C193.467 82.1212 191.183 79.9561 189.518 77.1487C187.9 74.3413 187.091 70.9866 187.091 67.0848C187.091 63.3256 187.948 60.0662 189.661 57.3063C191.421 54.5465 193.729 52.4052 196.584 50.8825C199.487 49.3598 202.651 48.5985 206.077 48.5985C209.979 48.5985 213.31 49.5264 216.07 51.3822C218.877 53.1903 220.994 55.7123 222.422 58.948C223.849 62.1361 224.444 65.8238 224.206 70.0112H198.012C198.202 72.4855 199.106 74.3413 200.724 75.5784C202.389 76.8156 204.221 77.4342 206.22 77.4342C207.885 77.4342 209.313 77.1963 210.502 76.7204C211.739 76.197 212.691 75.5546 213.357 74.7933L221.994 77.9338C220.138 80.6461 217.806 82.6446 214.999 83.9294C212.239 85.2141 209.408 85.8565 206.505 85.8565ZM198.012 63.5874H214.142C214.095 61.3033 213.31 59.5903 211.787 58.4483C210.264 57.2587 208.456 56.6639 206.362 56.6639C204.316 56.6639 202.484 57.2112 200.867 58.3056C199.296 59.4 198.345 61.1606 198.012 63.5874ZM244.292 85C241.389 85 239.081 84.7621 237.368 84.2862C235.655 83.7628 234.418 82.7874 233.657 81.3599C232.943 79.8848 232.586 77.7673 232.586 75.0074V57.8773H226.733V49.5978H232.586V40.7472H243.435V49.5978H251.144V57.8773H243.435V72.1524C243.435 73.8178 243.745 74.9123 244.363 75.4357C245.029 75.9115 246.243 76.1494 248.003 76.1494H251.144V85H244.292ZM271.693 85.8565C267.554 85.8565 263.961 85.0952 260.916 83.5725C257.918 82.0498 255.729 79.8134 254.349 76.8632L263.557 73.5085C264.08 74.9836 265.079 76.1019 266.554 76.8632C268.077 77.577 269.861 77.9338 271.907 77.9338C273.668 77.9338 275.215 77.6721 276.547 77.1487C277.927 76.5777 278.617 75.745 278.617 74.6506C278.617 73.8892 278.212 73.2468 277.403 72.7234C276.594 72.2 275.167 71.7717 273.121 71.4387L266.768 70.368C263.342 69.797 260.559 68.6312 258.417 66.8706C256.276 65.11 255.206 62.7546 255.206 59.8045C255.206 57.3301 255.943 55.2602 257.418 53.5948C258.941 51.9294 260.939 50.6922 263.414 49.8833C265.888 49.0268 268.577 48.5985 271.479 48.5985C274.858 48.5985 277.974 49.2171 280.829 50.4543C283.732 51.6439 285.849 53.6424 287.182 56.4498L278.046 59.8045C277.713 58.5197 276.928 57.6632 275.69 57.2349C274.453 56.7591 273.026 56.5212 271.408 56.5212C267.506 56.5212 265.555 57.4729 265.555 59.3762C265.555 60.09 265.888 60.6848 266.554 61.1606C267.22 61.5888 268.339 61.9457 269.909 62.2312L276.475 63.4446C280.758 64.2059 283.922 65.3242 285.968 66.7993C288.015 68.2743 289.038 70.487 289.038 73.4372C289.038 76.197 288.252 78.5048 286.682 80.3606C285.112 82.2164 283.018 83.5963 280.401 84.5004C277.784 85.4045 274.881 85.8565 271.693 85.8565ZM310.82 85.8565C306.918 85.8565 303.611 85.0714 300.899 83.5011C298.234 81.9309 296.188 79.742 294.76 76.9346C293.38 74.0796 292.691 70.7963 292.691 67.0848C292.691 63.3732 293.452 60.1375 294.975 57.3777C296.497 54.5703 298.615 52.4052 301.327 50.8825C304.087 49.3598 307.251 48.5985 310.82 48.5985C312.866 48.5985 314.888 48.884 316.887 49.455C318.933 50.026 320.812 51.0015 322.525 52.3814C324.286 53.7138 325.714 55.5457 326.808 57.8773L317.743 61.1606C317.172 59.6379 316.316 58.5673 315.174 57.9487C314.079 57.3301 312.842 57.0208 311.462 57.0208C310.178 57.0208 308.94 57.3539 307.751 58.0201C306.561 58.6387 305.586 59.6855 304.824 61.1606C304.111 62.6357 303.754 64.6342 303.754 67.1561C303.754 69.7256 304.134 71.7717 304.896 73.2944C305.657 74.7695 306.609 75.8401 307.751 76.5063C308.94 77.1249 310.178 77.4342 311.462 77.4342C312.985 77.4342 314.27 77.1487 315.317 76.5777C316.363 75.9591 317.196 75.1264 317.815 74.0796L326.665 77.2914C325.476 79.4327 324.001 81.1457 322.24 82.4305C320.479 83.6677 318.6 84.548 316.601 85.0714C314.65 85.5948 312.723 85.8565 310.82 85.8565ZM331.628 85V37.3212H342.477V54.3085C343.286 52.9762 344.618 51.6914 346.474 50.4543C348.378 49.2171 350.685 48.5985 353.398 48.5985C357.966 48.5985 361.082 49.8833 362.748 52.4528C364.461 54.9747 365.317 58.6387 365.317 63.4446V85H354.468V66.1569C354.468 64.4914 354.373 62.9688 354.183 61.5888C353.992 60.2089 353.517 59.1145 352.755 58.3056C352.041 57.4491 350.804 57.0208 349.044 57.0208C346.76 57.0208 345.094 57.8535 344.047 59.519C343.001 61.1368 342.477 63.5636 342.477 66.7993V85H331.628ZM389.475 85.8565C385.668 85.8565 382.289 85.119 379.339 83.6439C376.437 82.1212 374.153 79.9561 372.487 77.1487C370.869 74.3413 370.06 70.9866 370.06 67.0848C370.06 63.3256 370.917 60.0662 372.63 57.3063C374.391 54.5465 376.698 52.4052 379.553 50.8825C382.456 49.3598 385.62 48.5985 389.046 48.5985C392.948 48.5985 396.279 49.5264 399.039 51.3822C401.846 53.1903 403.964 55.7123 405.391 58.948C406.819 62.1361 407.414 65.8238 407.176 70.0112H380.981C381.171 72.4855 382.075 74.3413 383.693 75.5784C385.359 76.8156 387.191 77.4342 389.189 77.4342C390.854 77.4342 392.282 77.1963 393.472 76.7204C394.709 76.197 395.66 75.5546 396.327 74.7933L404.963 77.9338C403.107 80.6461 400.776 82.6446 397.968 83.9294C395.208 85.2141 392.377 85.8565 389.475 85.8565ZM380.981 63.5874H397.112C397.064 61.3033 396.279 59.5903 394.756 58.4483C393.234 57.2587 391.425 56.6639 389.332 56.6639C387.286 56.6639 385.454 57.2112 383.836 58.3056C382.266 59.4 381.314 61.1606 380.981 63.5874Z" fill="#291934"/>
</svg>
